<svg width="151" height="154" viewBox="0 0 151 154" fill="none" xmlns="http://www.w3.org/2000/svg">
<path d="M149.791 43.3478C150.053 42.3793 150.083 41.3629 149.88 40.3805C149.677 39.398 149.247 38.4768 148.623 37.691C148 36.9052 147.2 36.2767 146.289 35.8561C145.379 35.4354 144.382 35.2344 143.379 35.269H33.6744C33.3024 35.2647 32.9426 35.1362 32.6521 34.9038C32.3617 34.6715 32.1573 34.3486 32.0714 33.9867L28.4167 16.5467C27.4203 11.8745 24.8534 7.68459 21.1435 4.6747C17.4336 1.6648 12.8047 0.0165478 8.02738 0.00439453C5.90175 0.00439453 3.86319 0.848797 2.36014 2.35184C0.857097 3.85489 0.0126953 5.89345 0.0126953 8.01908C0.0126953 10.1447 0.857097 12.1833 2.36014 13.6863C3.86319 15.1894 5.90175 16.0338 8.02738 16.0338C9.12154 16.0378 10.1816 16.4148 11.0326 17.1025C11.8836 17.7903 12.4745 18.7477 12.708 19.8167L33.0332 116.506C34.0911 121.46 36.9175 125.859 40.9838 128.881C41.1712 129.026 41.3254 129.21 41.436 129.42C41.5466 129.63 41.611 129.862 41.6249 130.099C41.6326 130.342 41.5845 130.584 41.4845 130.807C41.3846 131.029 41.2352 131.225 41.0479 131.381C39.4112 132.781 38.1535 134.571 37.3908 136.585C36.6281 138.599 36.385 140.773 36.6839 142.906C36.9828 145.039 37.8141 147.062 39.1011 148.789C40.388 150.516 42.0892 151.891 44.0476 152.787C46.0061 153.683 48.1587 154.071 50.3068 153.916C52.4549 153.761 54.5294 153.067 56.3388 151.899C58.1482 150.731 59.6342 149.126 60.6597 147.232C61.6853 145.338 62.2173 143.217 62.2067 141.063C62.2045 139.082 61.7437 137.129 60.8602 135.356C60.7185 135.125 60.6436 134.859 60.6436 134.587C60.6436 134.315 60.7185 134.049 60.8602 133.818C61.0012 133.586 61.1987 133.394 61.4342 133.259C61.6697 133.125 61.9355 133.052 62.2067 133.048H100.677C100.959 133.041 101.238 133.108 101.486 133.243C101.733 133.378 101.941 133.577 102.088 133.818C102.217 134.054 102.284 134.318 102.284 134.587C102.284 134.856 102.217 135.121 102.088 135.356C101.161 137.116 100.677 139.074 100.677 141.063C100.677 144.464 102.028 147.726 104.433 150.13C106.838 152.535 110.1 153.886 113.501 153.886C116.902 153.886 120.163 152.535 122.568 150.13C124.973 147.726 126.324 144.464 126.324 141.063C126.312 139.055 125.829 137.079 124.914 135.292C124.804 135.051 124.747 134.788 124.747 134.523C124.747 134.257 124.804 133.995 124.914 133.753C125.062 133.534 125.263 133.354 125.498 133.231C125.733 133.108 125.995 133.045 126.26 133.048C128.386 133.048 130.424 132.204 131.927 130.701C133.43 129.198 134.275 127.159 134.275 125.034C134.275 122.908 133.43 120.869 131.927 119.366C130.424 117.863 128.386 117.019 126.26 117.019H53.4226C52.3284 117.015 51.2683 116.638 50.4174 115.95C49.5664 115.262 48.9754 114.305 48.742 113.236L47.5879 107.722C47.481 107.513 47.4252 107.283 47.4252 107.049C47.4252 106.814 47.481 106.584 47.5879 106.375C47.7877 106.102 48.0691 105.899 48.3917 105.795C48.7142 105.691 49.0613 105.692 49.3832 105.798H118.117C122.332 105.792 126.427 104.403 129.775 101.843C133.123 99.2826 135.537 95.694 136.647 91.6283L149.791 43.3478Z" fill="#FFFCF2"/>
</svg>
