<?xml version="1.0" encoding="UTF-8"?>
<svg id="Capa_2" data-name="Capa 2" xmlns="http://www.w3.org/2000/svg" viewBox="0 0 500 197.17">
  <defs>
    <style>
      .cls-1 {
        fill: #fdfaf1;
      }

      .cls-2 {
        fill: #d99134;
      }

      .cls-3 {
        fill: #242221;
      }
    </style>
  </defs>
  <g id="Capa_1-2" data-name="Capa 1">
    <path class="cls-3" d="m500,115.52c0-1.79-.55-3.66-1.66-5.38l-17.45-26.48c1.31-1.59,2.55-3.24,3.65-5.03,4.83-7.59,7.31-16.62,7.31-26.76s-2.41-18.83-7.17-26.55c-4.83-7.86-11.79-13.93-20.62-18-8-3.66-17.24-5.52-27.52-5.52h-124.14c-7.93,0-14.34,6.48-14.34,14.41-3.31-2.69-6.76-5.1-10.69-7.1-9.59-4.83-20.55-7.31-32.62-7.31h-44.07c-7.59,0-13.72,6.14-13.72,13.72-5.24-4.55-11.17-8.21-17.86-10.83-15.59-6.21-35.03-6.21-50.62,0-7.24,2.83-13.72,6.97-19.24,12.07-4.69-4.48-10-8.21-16-10.9-8.48-3.86-18.07-5.86-28.41-5.86-8.9,0-17.31,1.59-25.03,4.62-7.79,3.03-14.76,7.45-20.62,13.17-5.86,5.72-10.55,12.62-13.79,20.41C2.14,46,.48,54.48.48,63.52s1.66,17.59,4.9,25.38c2.21,5.38,5.17,10.28,8.69,14.69-3.86,0-7.38,1.59-9.93,4.14s-4.14,6-4.14,9.93v15.59c0,9.86,8,17.79,17.79,17.79v44.97h121.24v-3.1c.69.28,1.31.69,2,.97,5.79,2.21,12.07,3.31,18.76,3.31,5.31,0,10.28-.76,15.03-2.07v.9h89.52v-17.52h9.31v17.52h89.52v-3.38c6.14,2.9,13.1,4.55,21.03,4.55s14.97-1.66,21.17-4.62v3.45h48.34c12.97,0,22.76-2.97,30.14-9.17,6.48-5.45,10.55-13.59,10.97-22.07.35-6.76-1.17-13.17-4.41-18.55,1.1-3.24,1.66-6.69,1.66-10.21,0-3.79-.62-7.38-1.86-10.69,5.72,0,9.79-4.76,9.79-9.79Zm-239.24-52c0,2.07-.34,3.66-.9,4.69l-.07.07c-.48.9-.97,1.24-1.52,1.59-.69.34-1.52.55-2.55.69v-14.07c1.03.14,1.86.41,2.55.76.76.41,1.24.9,1.66,1.66.28.55.83,1.86.83,4.62Zm12.9,59.45v8.83h-9.31v-7.1c3.17-.35,6.28-.97,9.31-1.72ZM68.97,56c1.31.69,2.62,1.86,3.93,3.45l3.24,4-3.38,4.21c-1.24,1.66-2.55,2.76-3.79,3.45-.55.28-1.38.62-2.9.62-1.31,0-2.34-.14-3.24-.48-.69-.35-1.03-.62-1.31-.9-.55-.62-1.03-1.38-1.38-2.48-.48-1.17-.69-2.62-.69-4.34s.21-3.17.69-4.28c.34-1.1.83-1.86,1.38-2.48.28-.28.62-.55,1.31-.9.9-.34,1.93-.48,3.24-.48,1.52,0,2.35.35,2.9.62Zm90.07,11.86c-.41,1.03-.9,1.86-1.45,2.48-.41.41-.83.76-1.38.97-1.38.55-3.45.55-4.83,0-.62-.28-1.1-.62-1.59-1.1-.48-.55-.9-1.24-1.24-2.14-.41-1.17-.62-2.69-.62-4.55s.21-3.31.62-4.48c.48-1.17.97-1.79,1.24-2.14.48-.48.97-.83,1.59-1.1.69-.28,1.45-.41,2.41-.41s1.72.14,2.41.41c.55.21.97.55,1.38.97.55.62,1.03,1.45,1.45,2.48.41,1.03.62,2.55.62,4.28s-.21,3.24-.62,4.34Z"/>
    <g>
      <path class="cls-1" d="m30.58,96.92c4.24,4.12,9.22,7.29,14.93,9.54,5.71,2.24,11.95,3.37,18.72,3.37,7.91,0,14.99-1.44,21.23-4.32,6.24-2.88,11.44-7.07,15.6-12.59l-15.42-14.49c-2.77,3.48-5.83,6.11-9.18,7.89s-7.01,2.67-11.01,2.67c-3.51,0-6.73-.59-9.66-1.78s-5.45-2.9-7.53-5.15c-2.08-2.25-3.71-4.94-4.89-8.08-1.18-3.14-1.77-6.61-1.77-10.43s.59-7.29,1.77-10.43,2.82-5.83,4.89-8.08c2.08-2.25,4.59-3.96,7.53-5.15,2.94-1.19,6.16-1.78,9.66-1.78,4,0,7.67.89,11.01,2.67,3.34,1.78,6.4,4.37,9.18,7.76l15.42-14.49c-4.16-5.51-9.36-9.68-15.6-12.52-6.24-2.84-13.32-4.26-21.23-4.26-6.77,0-13.01,1.12-18.72,3.37-5.71,2.25-10.69,5.42-14.93,9.53-4.24,4.12-7.55,9.01-9.91,14.69-2.37,5.68-3.55,11.91-3.55,18.69s1.18,13.01,3.55,18.69c2.36,5.68,5.67,10.57,9.91,14.68Z"/>
      <path class="cls-1" d="m197.17,44.97c-2.41-5.59-5.72-10.41-10-14.62-4.21-4.14-9.24-7.38-15.03-9.65-5.79-2.28-12.14-3.45-18.97-3.45s-13.17,1.17-18.97,3.45c-5.79,2.28-10.83,5.52-15.03,9.72-4.28,4.21-7.59,9.1-10,14.69-2.41,5.59-3.59,11.72-3.59,18.35s1.17,12.83,3.59,18.48c2.41,5.66,5.72,10.55,10,14.76,4.21,4.21,9.24,7.45,15.1,9.72s12.14,3.45,18.9,3.45,13.17-1.17,18.97-3.45c5.79-2.28,10.83-5.52,15.1-9.66,4.28-4.21,7.59-9.1,10-14.69,2.34-5.65,3.52-11.86,3.52-18.62s-1.17-12.9-3.59-18.48Zm-22.62,29.1c-1.17,3.03-2.83,5.72-4.9,8-2.07,2.21-4.55,3.93-7.38,5.1-2.83,1.24-5.86,1.79-9.1,1.79s-6.28-.55-9.1-1.79c-2.83-1.17-5.31-2.9-7.38-5.1-2.14-2.28-3.79-4.97-4.9-8-1.17-3.1-1.72-6.62-1.72-10.55s.55-7.38,1.72-10.48c1.1-3.1,2.76-5.72,4.9-8,2.07-2.21,4.55-3.93,7.38-5.1,2.83-1.24,5.86-1.79,9.1-1.79s6.28.55,9.1,1.79c2.83,1.17,5.31,2.9,7.38,5.1,2.07,2.28,3.72,4.9,4.9,8,1.17,3.1,1.72,6.62,1.72,10.48s-.55,7.45-1.72,10.55Z"/>
      <path class="cls-1" d="m295.79,39.93c-4.07-6.62-9.65-11.79-16.83-15.45-7.17-3.59-15.45-5.45-24.83-5.45h-40.48v89.03h40.48c9.38,0,17.66-1.86,24.83-5.52,7.17-3.59,12.76-8.76,16.83-15.45,4-6.62,6.07-14.55,6.07-23.66s-2.07-16.97-6.07-23.52Zm-21.52,36.62c-2,3.72-4.83,6.55-8.48,8.48-3.59,1.93-7.93,2.9-12.9,2.9h-15.03v-48.83h15.03c4.97,0,9.31,1.03,12.9,2.97,3.65,1.93,6.48,4.69,8.48,8.34,2.07,3.59,3.1,8,3.1,13.1s-1.03,9.38-3.1,13.03Z"/>
      <polygon class="cls-1" points="383.32 88.47 338.54 88.47 338.54 72.19 376.59 72.19 376.59 53.5 338.54 53.5 338.54 38.63 381.73 38.63 381.73 19.05 314.69 19.05 314.69 108.05 383.32 108.05 383.32 88.47"/>
      <path class="cls-1" d="m457.17,80c5.24-2.55,9.31-6.07,12.21-10.62,3.1-4.83,4.62-10.69,4.62-17.52s-1.52-12.55-4.62-17.52c-3.03-4.97-7.45-8.76-13.1-11.38-5.72-2.62-12.48-3.93-20.34-3.93h-39.03v89.03h24.21v-23.66h13.1l15.52,23.66h26l-18.55-28.07Zm-11.31-18.48c-2.55,2.28-6.34,3.45-11.38,3.45h-13.38v-26.07h13.38c5.03,0,8.83,1.17,11.38,3.45,2.48,2.34,3.79,5.52,3.79,9.52s-1.31,7.38-3.79,9.66Z"/>
      <polygon class="cls-1" points="16.65 133.82 34.45 133.82 34.45 178.76 50.83 178.76 50.83 133.82 68.54 133.82 68.54 120.83 16.65 120.83 16.65 133.82"/>
      <polygon class="cls-1" points="90.89 155.42 116.62 155.42 116.62 143.25 90.89 143.25 90.89 133.58 120.1 133.58 120.1 120.83 74.75 120.83 74.75 178.76 121.18 178.76 121.18 166.01 90.89 166.01 90.89 155.42"/>
      <path class="cls-1" d="m148.36,137.75c1.41-1.46,3.1-2.58,5.09-3.35,1.98-.77,4.16-1.16,6.54-1.16,2.7,0,5.19.58,7.45,1.74s4.33,2.84,6.21,5.05l10.43-9.44c-2.82-3.58-6.33-6.3-10.55-8.15-4.22-1.85-9.01-2.77-14.36-2.77-4.58,0-8.8.73-12.66,2.2s-7.23,3.53-10.1,6.2c-2.87,2.68-5.11,5.87-6.7,9.56s-2.4,7.75-2.4,12.16.8,8.47,2.4,12.16c1.6,3.7,3.84,6.88,6.7,9.56,2.87,2.67,6.23,4.74,10.1,6.2s8.08,2.2,12.66,2.2c5.35,0,10.14-.94,14.36-2.82,4.22-1.87,7.74-4.61,10.55-8.2l-10.43-9.43c-1.88,2.26-3.94,3.97-6.21,5.13-2.26,1.16-4.74,1.74-7.45,1.74-2.37,0-4.55-.39-6.54-1.16-1.99-.77-3.68-1.89-5.09-3.35s-2.51-3.21-3.31-5.25c-.8-2.04-1.2-4.3-1.2-6.79s.4-4.74,1.2-6.79c.8-2.04,1.9-3.79,3.31-5.25Z"/>
      <polygon class="cls-1" points="230.09 142.59 207.83 142.59 207.83 120.83 191.44 120.83 191.44 178.76 207.83 178.76 207.83 156.16 230.09 156.16 230.09 178.76 246.47 178.76 246.47 120.83 230.09 120.83 230.09 142.59"/>
      <rect class="cls-2" x="256.24" y="149.05" width="24.16" height="12.17"/>
      <polygon class="cls-1" points="328.9 142.59 306.64 142.59 306.64 120.83 290.25 120.83 290.25 178.76 306.64 178.76 306.64 156.16 328.9 156.16 328.9 178.76 345.29 178.76 345.29 120.83 328.9 120.83 328.9 142.59"/>
      <path class="cls-1" d="m394.6,152.52c0,4.92-.94,8.45-2.84,10.59-1.91,2.16-4.57,3.23-7.99,3.23s-6.1-1.08-8.03-3.23c-1.94-2.15-2.9-5.68-2.9-10.59v-31.69h-16.39v32.19c0,8.55,2.39,15.17,7.16,19.86,4.78,4.69,11.43,7.04,19.98,7.04s15.17-2.34,19.99-7.04c4.82-4.69,7.25-11.31,7.25-19.86v-32.19h-16.23v31.69Z"/>
      <path class="cls-1" d="m474.48,154.34c-1.66-2.35-4-4.21-7.1-5.45-.34-.14-.83-.21-1.17-.28,2.34-1.24,4.34-2.83,5.72-4.76,1.52-2.28,2.28-4.9,2.28-7.86,0-4.48-1.86-8.14-5.59-10.97-3.79-2.83-9.52-4.21-17.17-4.21h-29.45v57.93h31.1c7.86,0,13.79-1.38,17.86-4.21,4.07-2.83,6.07-6.69,6.07-11.66,0-3.31-.83-6.21-2.55-8.55Zm-36.34-21.66h11.24c2.76,0,4.83.41,6.21,1.31,1.38.97,2.07,2.34,2.07,4.28s-.69,3.24-2.07,4.14c-1.38.97-3.45,1.45-6.21,1.45h-11.24v-11.17Zm20.21,32.76c-1.45.97-3.59,1.45-6.48,1.45h-13.72v-11.72h13.72c2.9,0,5.03.48,6.48,1.45,1.45.97,2.14,2.41,2.14,4.41s-.69,3.45-2.14,4.41Z"/>
    </g>
  </g>
</svg>